#!OML:ASF E:\motion texture\Top Level 1\Subject 1\Session 1\male.ASF
:FULLY-SPECIFIED
:DEGREES
306
root 3.64926 17.694 4.07335 370.389 -84.6284 -363.154
lowerback -0.268412 -0.0528111 1.89221
upperback -0.262701 -0.153004 4.58807
thorax -0.110328 -0.110943 3.65615
lowerneck -12.1712 -2.45934 -7.21686
upperneck -18.5379 -2.59621 8.8653
head -3.36247 -1.52864 3.97186
rclavicle -7.7526e-015 -2.70347e-014
rhumerus -31.0587 -31.2004 -69.6679
rradius 25.5696
rwrist -22.0148
rhand -13.8994 -57.3431
rfingers 7.12502
rthumb 12.2261 -446.966
lclavicle -7.7526e-015 -2.70347e-014
lhumerus -25.2275 -1.5265 91.8696
lradius 54.5653
lwrist -0.789975
lhand -10.8956 32.1048
lfingers 7.12502
lthumb 15.121 61.5324
rfemur -33.3394 -0.633251 17.6484
rtibia 23.5131
rfoot -1.56073 -10.2934
rtoes 8.71932
lfemur -3.59919 -5.134 -19.3631
ltibia 33.2113
lfoot -9.16319 -7.72421
ltoes -12.5027
307
root 3.49424 17.7054 4.04928 372.563 -84.5617 -365.415
lowerback -0.285297 0.0183489 2.11172
upperback -0.287663 -0.0630009 4.69287
thorax -0.130934 -0.0682146 3.64153
lowerneck -12.2155 -2.52176 -7.281
upperneck -18.5969 -2.68104 8.78522
head -3.36927 -1.56404 3.95701
rclavicle -1.59028e-015 -2.38542e-014
rhumerus -30.6668 -32.8382 -69.1726
rradius 24.6659
rwrist -21.156
rhand -13.918 -57.6471
rfingers 7.12502
rthumb 12.2082 -447.271
lclavicle -1.59028e-015 -2.38542e-014
lhumerus -25.1069 -0.785008 91.2348
lradius 53.0347
lwrist -1.89883
lhand -11.2411 32.0252
lfingers 7.12502
lthumb 14.7882 61.4776
rfemur -32.8952 -0.660528 18.1092
rtibia 23.7915
rfoot -1.57324 -9.97077
rtoes 9.41483
lfemur -4.06049 -5.00851 -18.9108
ltibia 34.528
lfoot -8.35448 -7.83745
ltoes -12.8198
308
root 3.33952 17.7176 4.02498 374.767 -84.4998 -367.713
lowerback -0.305292 0.0916801 2.33408
upperback -0.312821 0.0296575 4.7941
thorax -0.149774 -0.0242624 3.62168
lowerneck -12.2535 -2.58603 -7.34501
upperneck -18.6445 -2.76783 8.70924
head -3.37326 -1.60019 3.94313
rclavicle 8.74653e-015 -3.18055e-015
rhumerus -30.2029 -34.3852 -68.8122
rradius 23.8594
rwrist -20.3387
rhand -13.9219 -57.9062
rfingers 7.12502
rthumb 12.2044 -447.53
lclavicle 8.74653e-015 -3.18055e-015
lhumerus -24.9856 -0.0270273 90.606
lradius 51.4619
lwrist -3.0516
lhand -11.5733 31.9591
lfingers 7.12502
lthumb 14.4682 61.4347
rfemur -32.4166 -0.671633 18.5767
rtibia 24.0354
rfoot -1.60598 -9.65738
rtoes 10.1271
lfemur -4.56267 -4.86965 -18.4513
ltibia 35.8724
lfoot -7.53892 -7.9122
ltoes -13.1056
309
root 3.18517 17.7306 4.0005 377.034 -84.4444 -370.081
lowerback -0.326978 0.16771 2.56133
upperback -0.338274 0.125699 4.89216
thorax -0.167726 0.0212606 3.59591
lowerneck -12.2842 -2.65163 -7.41141
upperneck -18.6819 -2.8553 8.6406
head -3.37491 -1.63649 3.93172
rclavicle 7.35503e-015 -3.97569e-014
rhumerus -29.6486 -35.814 -68.6103
rradius 23.1541
rwrist -19.5976
rhand -13.9027 -58.1223
rfingers 7.12502
rthumb 12.2229 -447.745
lclavicle 7.35503e-015 -3.97569e-014
lhumerus -24.8645 0.752799 89.9817
lradius 49.8543
lwrist -4.24716
lhand -11.8766 31.9175
lfingers 7.12502
lthumb 14.1759 61.4138
rfemur -31.9035 -0.66369 19.0534
rtibia 24.2405
rfoot -1.65625 -9.35305
rtoes 10.8359
lfemur -5.10216 -4.71367 -17.9824
ltibia 37.2358
lfoot -6.7266 -7.94929
ltoes -13.3593
310
root 3.03131 17.7444 3.97592 379.338 -84.3926 -372.493
lowerback -0.351175 0.245494 2.79114
upperback -0.364099 0.223872 4.98579
thorax -0.184303 0.0677596 3.56421
lowerneck -12.3037 -2.718 -7.47976
upperneck -18.7118 -2.94282 8.58014
head -3.37565 -1.67276 3.92311
rclavicle -1.15295e-014 2.8625e-014
rhumerus -28.9869 -37.1036 -68.5879
rradius 22.5512
rwrist -18.958
rhand -13.8661 -58.3029
rfingers 7.12502
rthumb 12.2582 -447.924
lclavicle -1.15295e-014 2.8625e-014
lhumerus -24.7447 1.55773 89.3604
lradius 48.2185
lwrist -5.48718
lhand -12.1545 31.8905
lfingers 7.12502
lthumb 13.9081 61.4054
rfemur -31.356 -0.638967 19.5347
rtibia 24.4038
rfoot -1.72617 -9.06083
rtoes 11.5409
lfemur -5.67779 -4.54353 -17.5087
ltibia 38.6122
lfoot -5.92836 -7.95093
ltoes -13.5834
311
root 2.87805 17.7589 3.95132 381.686 -84.3446 -374.953
lowerback -0.378408 0.325229 3.02358
upperback -0.391033 0.324435 5.07474
thorax -0.199926 0.115367 3.5263
lowerneck -12.3121 -2.78524 -7.54747
upperneck -18.7339 -3.03102 8.52543
head -3.37543 -1.7094 3.91609
rclavicle -9.74045e-015 -8.11041e-014
rhumerus -28.1985 -38.2226 -68.7668
rradius 22.0545
rwrist -18.4531
rhand -13.8187 -58.4686
rfingers 7.12502
rthumb 12.3039 -448.087
lclavicle -9.74045e-015 -8.11041e-014
lhumerus -24.6277 2.39313 88.7403
lradius 46.5624
lwrist -6.76965
lhand -12.4092 31.8577
lfingers 7.12502
lthumb 13.6627 61.3893
rfemur -30.7771 -0.598324 20.0202
rtibia 24.524
rfoot -1.81312 -8.77957
rtoes 12.231
lfemur -6.2885 -4.35886 -17.0318
ltibia 39.9942
lfoot -5.15642 -7.91838
ltoes -13.7878
312
root 2.72552 17.774 3.92675 384.1 -84.3008 -377.483
lowerback -0.408503 0.407096 3.25966
upperback -0.41894 0.427584 5.15942
thorax -0.214502 0.164165 3.48208
lowerneck -12.3103 -2.85254 -7.61565
upperneck -18.7479 -3.11855 8.47793
head -3.37402 -1.74573 3.91131
rclavicle -2.5842e-015 -5.24792e-014
rhumerus -27.2676 -39.1471 -69.1623
rradius 21.6662
rwrist -18.1047
rhand -13.6881 -58.5506
rfingers 7.12502
rthumb 12.4298 -448.161
lclavicle -2.5842e-015 -5.24792e-014
lhumerus -24.5157 3.2633 88.1193
lradius 44.8948
lwrist -8.09413
lhand -12.6288 31.839
lfingers 7.12502
lthumb 13.451 61.3846
rfemur -30.1682 -0.538511 20.5097
rtibia 24.6001
rfoot -1.91857 -8.51056
rtoes 12.9135
lfemur -6.93326 -4.1585 -16.551
ltibia 41.3754
lfoot -4.41699 -7.85504
ltoes -13.9557
313
root 2.5738 17.7896 3.90227 386.517 -84.2586 -380.023
lowerback -0.43991 0.489445 3.49366
upperback -0.446213 0.53123 5.23845
thorax -0.22716 0.213177 3.43333
lowerneck -12.2984 -2.92007 -7.68401
upperneck -18.7557 -3.20579 8.43717
head -3.37196 -1.78201 3.90862
rclavicle -7.95139e-015 -3.18055e-014
rhumerus -26.1787 -39.8543 -69.7849
rradius 21.3827
rwrist -17.9328
rhand -13.6103 -58.6699
rfingers 7.12502
rthumb 12.5049 -448.276
lclavicle -7.95139e-015 -3.18055e-014
lhumerus -24.4083 4.17217 87.4954
lradius 43.2229
lwrist -9.45832
lhand -12.8075 31.8389
lfingers 7.12502
lthumb 13.2788 61.3959
rfemur -29.5272 -0.465032 20.9968
rtibia 24.6325
rfoot -2.04112 -8.252
rtoes 13.5785
lfemur -7.60482 -3.94611 -16.0748
ltibia 42.7455
lfoot -3.71929 -7.76506
ltoes -14.0892
314
root 2.42296 17.8058 3.87798 388.966 -84.2191 -382.6
lowerback -0.472142 0.573435 3.72826
upperback -0.474163 0.637013 5.3115
thorax -0.239518 0.263206 3.3782
lowerneck -12.2738 -2.98749 -7.75063
upperneck -18.7584 -3.29264 8.40247
head -3.37007 -1.8183 3.90756
rclavicle -1.78906e-015 -3.97569e-014
rhumerus -24.9315 -40.3156 -70.6354
rradius 21.2114
rwrist -17.9611
rhand -13.5418 -58.7875
rfingers 7.12502
rthumb 12.5709 -448.389
lclavicle -1.78906e-015 -3.97569e-014
lhumerus -24.3063 5.12657 86.866
lradius 41.5505
lwrist -10.8681
lhand -12.9914 31.7817
lfingers 7.12502
lthumb 13.1015 61.3502
rfemur -28.8567 -0.376602 21.4826
rtibia 24.6203
rfoot -2.1776 -8.00385
rtoes 14.2257
lfemur -8.30138 -3.72097 -15.6024
ltibia 44.0972
lfoot -3.07058 -7.65035
ltoes -14.1978
315
root 2.27312 17.8223 3.85392 391.449 -84.1822 -385.212
lowerback -0.506281 0.658324 3.96311
upperback -0.502992 0.74388 5.37847
thorax -0.251096 0.313731 3.31681
lowerneck -12.2387 -3.05431 -7.8175
upperneck -18.7556 -3.37804 8.37575
head -3.36782 -1.85405 3.90906
rclavicle -7.35503e-015 -5.40694e-014
rhumerus -23.5265 -40.5145 -71.703
rradius 21.1487
rwrist -18.196
rhand -13.4659 -58.9047
rfingers 7.12502
rthumb 12.6441 -448.502
lclavicle -7.35503e-015 -5.40694e-014
lhumerus -24.2124 6.13059 86.2282
lradius 39.8862
lwrist -12.3191
lhand -13.1613 31.6972
lfingers 7.12502
lthumb 12.9377 61.2761
rfemur -28.1627 -0.271963 21.9655
rtibia 24.5677
rfoot -2.32809 -7.76648
rtoes 14.8539
lfemur -9.02288 -3.483 -15.1355
ltibia 45.4231
lfoot -2.47699 -7.51347
ltoes -14.287
316
root 2.1243 17.839 3.83023 393.957 -84.1481 -387.852
lowerback -0.542459 0.744229 4.19706
upperback -0.531978 0.85195 5.43904
thorax -0.26105 0.364836 3.24948
lowerneck -12.1938 -3.12036 -7.88271
upperneck -18.7483 -3.4622 8.35497
head -3.36551 -1.88942 3.91217
rclavicle 4.67144e-015 1.59028e-014
rhumerus -21.9768 -40.4418 -72.9643
rradius 21.1979
rwrist -18.6413
rhand -13.3717 -59.0101
rfingers 7.12502
rthumb 12.7348 -448.602
lclavicle 4.67144e-015 1.59028e-014
lhumerus -24.1283 7.18828 85.5798
lradius 38.238
lwrist -13.8148
lhand -13.315 31.586
lfingers 7.12502
lthumb 12.7895 61.1743
rfemur -27.4461 -0.153177 22.4433
rtibia 24.4755
rfoot -2.49026 -7.53843
rtoes 15.4634
lfemur -9.76537 -3.23334 -14.6777
ltibia 46.7152
lfoot -1.94508 -7.35678
ltoes -14.3588
317
root 1.97663 17.856 3.80693 396.483 -84.1162 -390.511
lowerback -0.579576 0.830928 4.42886
upperback -0.560857 0.961016 5.49306
thorax -0.269702 0.416436 3.17679
lowerneck -12.1404 -3.18542 -7.94745
upperneck -18.7375 -3.54459 8.34141
head -3.36325 -1.92417 3.91754
rclavicle 2.88238e-015 -3.65764e-014
rhumerus -20.3004 -40.0889 -74.3879
rradius 21.3579
rwrist -19.2976
rhand -13.2684 -59.1126
rfingers 7.12502
rthumb 12.8345 -448.698
lclavicle 2.88238e-015 -3.65764e-014
lhumerus -24.054 8.30487 84.9179
lradius 36.6105
lwrist -15.3573
lhand -13.4553 31.4454
lfingers 7.12502
lthumb 12.6543 61.0421
rfemur -26.7095 -0.0212888 22.9141
rtibia 24.3461
rfoot -2.66181 -7.32013
rtoes 16.0468
lfemur -10.5264 -2.97374 -14.2313
ltibia 47.9659
lfoot -1.4767 -7.18278
ltoes -14.4223
